<?xml version="1.0" encoding="UTF-8"?>
<svg version="1.1" xmlns="http://www.w3.org/2000/svg" width="500" height="500">
<path d="M0 0 C0.66902344 -0.03738281 1.33804688 -0.07476562 2.02734375 -0.11328125 C5.85973186 -0.1810445 7.59033703 0.25418551 10.671875 2.5859375 C12.75 5.375 12.75 5.375 13.75 10.375 C37.51 10.375 61.27 10.375 85.75 10.375 C76.3943299 26.74742268 76.3943299 26.74742268 72 33.5 C71.54496094 34.21414062 71.08992188 34.92828125 70.62109375 35.6640625 C65.09265086 44.20367457 65.09265086 44.20367457 60.75 46.375 C59.29962893 46.46449417 57.84521371 46.4925844 56.39208984 46.48852539 C55.04091568 46.48841209 55.04091568 46.48841209 53.66244507 46.48829651 C52.68844757 46.48313522 51.71445007 46.47797394 50.7109375 46.47265625 C49.71494537 46.4712413 48.71895325 46.46982635 47.69277954 46.46836853 C44.50348947 46.46275936 41.31426894 46.4502053 38.125 46.4375 C35.96614685 46.43248618 33.80729259 46.42792307 31.6484375 46.42382812 C26.3489345 46.41278695 21.04947222 46.39603988 15.75 46.375 C16.08 48.025 16.41 49.675 16.75 51.375 C17.33676514 51.36976318 17.92353027 51.36452637 18.52807617 51.35913086 C32.63863943 51.25091472 46.66265785 51.56087084 60.75 52.375 C61.13218767 54.03114657 61.46395102 55.69957024 61.75 57.375 C57.21116994 61.91383006 38.5601315 59.35434603 32.29541016 59.40039062 C29.02805807 59.39092141 25.76626093 59.33240856 22.5 59.25 C20.99360962 59.23573975 20.99360962 59.23573975 19.45678711 59.22119141 C14.78384656 59.05050868 12.44538698 58.8928598 8.61328125 56.0390625 C6.14764194 52.51376688 6.07179962 50.59491346 6.75 46.375 C7.430625 45.59125 8.11125 44.8075 8.8125 44 C11.23721853 40.71489748 10.72742114 38.95340529 10.19262695 35.04052734 C9.37553186 30.11992931 8.3718269 25.2485214 7.3125 20.375 C7.09529297 19.32699219 6.87808594 18.27898437 6.65429688 17.19921875 C6.43966797 16.20535156 6.22503906 15.21148437 6.00390625 14.1875 C5.81127197 13.28644531 5.6186377 12.38539063 5.42016602 11.45703125 C5.19901123 10.76996094 4.97785645 10.08289063 4.75 9.375 C1.65468901 7.8273445 -1.6166763 7.93090549 -5.03515625 7.65625 C-7.25 7.375 -7.25 7.375 -8.25 6.375 C-8.375 3.875 -8.375 3.875 -8.25 1.375 C-6.27373264 -0.60126736 -2.6865574 0.05565373 0 0 Z M14.75 17.375 C16.07 23.975 17.39 30.575 18.75 37.375 C23.32702857 39.20581143 26.5138033 39.69534147 31.28125 39.7109375 C31.99478638 39.7175943 32.70832275 39.7242511 33.44348145 39.73110962 C34.9461816 39.74119637 36.44892619 39.74592787 37.95166016 39.74560547 C40.24326447 39.74998712 42.53295359 39.78636691 44.82421875 39.82421875 C46.28905596 39.83008627 47.75390225 39.8340561 49.21875 39.8359375 C50.23926453 39.85749405 50.23926453 39.85749405 51.28039551 39.87948608 C56.05985315 39.83383152 58.40172 38.74374853 61.75 35.375 C63.25853543 33.52791114 63.25853543 33.52791114 64.42578125 31.5546875 C64.86083984 30.85472656 65.29589844 30.15476563 65.74414062 29.43359375 C66.17919922 28.71300781 66.61425781 27.99242187 67.0625 27.25 C67.51689453 26.52167969 67.97128906 25.79335937 68.43945312 25.04296875 C70.88797731 21.45928413 70.88797731 21.45928413 71.75 17.375 C52.94 17.375 34.13 17.375 14.75 17.375 Z " fill="#6684EF" transform="translate(50.25,207.625)"/>
<path d="M0 0 C1 1 1 1 1 8 C-7.91 8 -16.82 8 -26 8 C-25.67 10.64 -25.34 13.28 -25 16 C-24.31373535 15.99476318 -23.6274707 15.98952637 -22.92041016 15.98413086 C-19.82194936 15.96339044 -16.72350314 15.95034924 -13.625 15.9375 C-12.54476562 15.92912109 -11.46453125 15.92074219 -10.3515625 15.91210938 C-8.8046875 15.90727539 -8.8046875 15.90727539 -7.2265625 15.90234375 C-6.27346191 15.89710693 -5.32036133 15.89187012 -4.33837891 15.88647461 C-2 16 -2 16 0 17 C0 19.31 0 21.62 0 24 C-8.58 24 -17.16 24 -26 24 C-26 27.3 -26 30.6 -26 34 C-25.2886792 33.99476318 -24.5773584 33.98952637 -23.84448242 33.98413086 C-20.62549725 33.96335982 -17.40652617 33.95033942 -14.1875 33.9375 C-13.06794922 33.92912109 -11.94839844 33.92074219 -10.79492188 33.91210938 C-9.18520508 33.90727539 -9.18520508 33.90727539 -7.54296875 33.90234375 C-6.55321045 33.89710693 -5.56345215 33.89187012 -4.54370117 33.88647461 C-2 34 -2 34 1 35 C1 37.31 1 39.62 1 42 C-10.88 42 -22.76 42 -35 42 C-35 28.47 -35 14.94 -35 1 C-8.59598854 -0.38968481 -8.59598854 -0.38968481 0 0 Z " fill="#181E29" transform="translate(194,224)"/>
<path d="M0 0 C0.68578125 0.0103125 1.3715625 0.020625 2.078125 0.03125 C7.74780571 0.31257004 10.15335369 1.98718163 14 5.875 C15.86485992 10.53714979 15 15.99419761 15 20.875 C6.42 20.875 -2.16 20.875 -11 20.875 C-10.67 22.525 -10.34 24.175 -10 25.875 C-7.48322887 27.13338557 -5.58706712 27.08318973 -2.7734375 27.19140625 C-1.7421875 27.23330078 -0.7109375 27.27519531 0.3515625 27.31835938 C1.43179687 27.35767578 2.51203125 27.39699219 3.625 27.4375 C5.25695312 27.50227539 5.25695312 27.50227539 6.921875 27.56835938 C9.6144517 27.6746453 12.30712253 27.77668057 15 27.875 C15 30.185 15 32.495 15 34.875 C10.60422239 34.93315112 6.20854402 34.96864767 1.8125 35 C0.56662109 35.01675781 -0.67925781 35.03351563 -1.96289062 35.05078125 C-3.16494141 35.05722656 -4.36699219 35.06367188 -5.60546875 35.0703125 C-7.26292114 35.08602295 -7.26292114 35.08602295 -8.95385742 35.10205078 C-12.03654165 34.87227629 -14.21840962 34.1831849 -17 32.875 C-17 32.215 -17 31.555 -17 30.875 C-17.66 30.875 -18.32 30.875 -19 30.875 C-20.73135236 21.78540009 -22.00215416 11.02665863 -17 2.875 C-11.73471384 -0.63519077 -6.14995943 -0.30056193 0 0 Z M-11 9.875 C-11 11.195 -11 12.515 -11 13.875 C-5.39 13.875 0.22 13.875 6 13.875 C5.5547002 9.24480013 5.5547002 9.24480013 4 7.875 C1.85692104 7.74962259 -0.29078886 7.69925636 -2.4375 7.6875 C-3.61183594 7.67332031 -4.78617187 7.65914062 -5.99609375 7.64453125 C-9.11496902 7.55600744 -9.11496902 7.55600744 -11 9.875 Z " fill="#18202B" transform="translate(345,231.125)"/>
<path d="M0 0 C2.72164587 2.75188638 3.08747363 4.42934039 3.20703125 8.26953125 C3.17447917 11.55729167 3.14192708 14.84505208 3.109375 18.1328125 C-5.140625 18.1328125 -13.390625 18.1328125 -21.890625 18.1328125 C-21.560625 20.1128125 -21.230625 22.0928125 -20.890625 24.1328125 C-12.970625 24.4628125 -5.050625 24.7928125 3.109375 25.1328125 C3.109375 27.4428125 3.109375 29.7528125 3.109375 32.1328125 C-1.28633294 32.2200378 -5.68181771 32.27328119 -10.078125 32.3203125 C-11.94694336 32.35801758 -11.94694336 32.35801758 -13.85351562 32.39648438 C-15.05556641 32.40615234 -16.25761719 32.41582031 -17.49609375 32.42578125 C-19.15354614 32.44934692 -19.15354614 32.44934692 -20.84448242 32.47338867 C-24.33020962 32.08366442 -26.1327345 31.27891424 -28.890625 29.1328125 C-31.77458646 24.8837396 -31.25847697 20.21140009 -31.265625 15.2578125 C-31.29011719 14.37222656 -31.31460937 13.48664063 -31.33984375 12.57421875 C-31.36494984 6.95882292 -30.81004505 3.48081111 -26.890625 -0.8671875 C-20.22193496 -4.72052439 -6.23703338 -4.02878643 0 0 Z M-21.890625 6.1328125 C-21.890625 7.7828125 -21.890625 9.4328125 -21.890625 11.1328125 C-16.280625 11.1328125 -10.670625 11.1328125 -4.890625 11.1328125 C-5.220625 9.4828125 -5.550625 7.8328125 -5.890625 6.1328125 C-8.62140376 4.76742312 -10.84622867 5.00049424 -13.890625 5.0078125 C-14.963125 5.00523437 -16.035625 5.00265625 -17.140625 5 C-19.85244552 4.9455784 -19.85244552 4.9455784 -21.890625 6.1328125 Z " fill="#1C242F" transform="translate(462.890625,233.8671875)"/>
<path d="M0 0 C0.88816406 0.0309375 1.77632813 0.061875 2.69140625 0.09375 C7.93429979 0.40629209 11.34274933 0.885593 15 5 C17.18341471 9.23567023 17.33419219 13.26500321 17.3125 17.9375 C17.32861328 18.62779297 17.34472656 19.31808594 17.36132812 20.02929688 C17.36582342 24.77182798 16.63882076 28.05039245 14 32 C9.56082009 36.03019597 4.23343655 35.48061009 -1.4375 35.4375 C-2.8306543 35.4674707 -2.8306543 35.4674707 -4.25195312 35.49804688 C-10.11284753 35.49387542 -13.58401665 34.97079478 -18 31 C-19.42727587 26.71817238 -19.22447769 22.61054564 -19.25 18.125 C-19.270625 17.22652344 -19.29125 16.32804687 -19.3125 15.40234375 C-19.34169602 10.46091774 -19.29627837 6.9696274 -16 3 C-10.84289695 -0.64770704 -6.04309429 -0.35495414 0 0 Z M-10 10 C-10.54239492 12.71918809 -10.54239492 12.71918809 -10.75 15.8125 C-10.84796875 16.85019531 -10.9459375 17.88789063 -11.046875 18.95703125 C-10.99452254 22.3555785 -10.49604108 25.50395892 -8 28 C-5.69006618 28.12557162 -3.37581464 28.17575729 -1.0625 28.1875 C0.83822266 28.20876953 0.83822266 28.20876953 2.77734375 28.23046875 C6.08943999 28.34713697 6.08943999 28.34713697 8 26 C8.22504349 23.2877875 8.32434995 20.71126815 8.3125 18 C8.32861328 17.26265625 8.34472656 16.5253125 8.36132812 15.765625 C8.39941105 13.37280011 8.39941105 13.37280011 8 10 C4.41717765 7.61145176 2.68606967 7.73101198 -1.5625 7.75 C-2.71878906 7.74484375 -3.87507812 7.7396875 -5.06640625 7.734375 C-8.12234222 7.69536818 -8.12234222 7.69536818 -10 10 Z " fill="#171E28" transform="translate(258,231)"/>
<path d="M0 0 C2.76526088 3.30047266 3.36476936 5.74435742 3 10 C0.03 10 -2.94 10 -6 10 C-6.33 9.01 -6.66 8.02 -7 7 C-8.43640171 6.80426392 -9.87419504 6.61872184 -11.3125 6.4375 C-12.11300781 6.33308594 -12.91351563 6.22867188 -13.73828125 6.12109375 C-16.16817116 5.85244822 -16.16817116 5.85244822 -19 7 C-18.67 7.99 -18.34 8.98 -18 10 C-16.35451172 10.23783203 -16.35451172 10.23783203 -14.67578125 10.48046875 C-13.2211821 10.71508152 -11.76676393 10.95081823 -10.3125 11.1875 C-9.59126953 11.28869141 -8.87003906 11.38988281 -8.12695312 11.49414062 C-3.0187603 12.35716864 -0.24777631 13.70941737 3 18 C3.90349056 21.10375581 3.7283846 23.85884142 3 27 C0.81840855 29.75569447 -0.87177494 31.43588747 -4 33 C-7.09725123 33.28978025 -10.20325265 33.27782438 -13.3125 33.3125 C-14.16779297 33.34150391 -15.02308594 33.37050781 -15.90429688 33.40039062 C-20.05425265 33.44217949 -22.40582741 33.34723386 -26.0546875 31.21484375 C-28.64868165 28.26144077 -28.77758598 25.85517627 -29 22 C-26.03 22 -23.06 22 -20 22 C-19.67 22.99 -19.34 23.98 -19 25 C-12.93949386 26.0812391 -12.93949386 26.0812391 -7 25 C-7 23.68 -7 22.36 -7 21 C-8.01320313 20.82984375 -9.02640625 20.6596875 -10.0703125 20.484375 C-11.42200801 20.24031887 -12.77356338 19.99548568 -14.125 19.75 C-15.12273437 19.58564453 -15.12273437 19.58564453 -16.140625 19.41796875 C-20.86752516 18.53746774 -24.14467139 17.0233276 -28 14 C-29.55024464 10.89951072 -29.28992015 8.42105782 -29 5 C-27.05380356 1.49684641 -25.62157075 0.26638746 -21.9375 -1.3125 C-14.60403152 -2.59294688 -6.93103127 -3.03232618 0 0 Z " fill="#212932" transform="translate(425,233)"/>
<path d="M0 0 C2.57582458 3.73050457 4.72910819 7.60168347 6.8125 11.625 C7.28429687 12.52863281 7.75609375 13.43226563 8.2421875 14.36328125 C11.8125 21.33245056 11.8125 21.33245056 11.8125 23.625 C12.4725 23.625 13.1325 23.625 13.8125 23.625 C14.04839844 22.81675781 14.28429687 22.00851563 14.52734375 21.17578125 C16.10343365 16.8211742 18.17935091 12.88121466 20.375 8.8125 C20.78685547 8.03712891 21.19871094 7.26175781 21.62304688 6.46289062 C24.66476739 0.77273261 24.66476739 0.77273261 25.8125 -0.375 C27.32719448 -0.60692865 28.85004562 -0.78715238 30.375 -0.9375 C31.20128906 -1.02128906 32.02757812 -1.10507813 32.87890625 -1.19140625 C33.83603516 -1.28228516 33.83603516 -1.28228516 34.8125 -1.375 C35.3075 -0.385 35.3075 -0.385 35.8125 0.625 C34.91967773 2.71289062 34.91967773 2.71289062 33.49609375 5.28125 C32.97853516 6.22226563 32.46097656 7.16328125 31.92773438 8.1328125 C31.37408203 9.12023437 30.82042969 10.10765625 30.25 11.125 C29.46012695 12.55972656 29.46012695 12.55972656 28.65429688 14.0234375 C19.03407151 31.40342849 19.03407151 31.40342849 16.8125 33.625 C14.81640625 33.828125 14.81640625 33.828125 12.375 33.875 C11.57191406 33.90078125 10.76882813 33.9265625 9.94140625 33.953125 C9.23886719 33.84484375 8.53632813 33.7365625 7.8125 33.625 C5.8125 30.625 5.8125 30.625 5.8125 27.625 C5.1525 27.625 4.4925 27.625 3.8125 27.625 C-0.85416667 18.29166667 -5.52083333 8.95833333 -10.1875 -0.375 C-2.91163793 -1.83017241 -2.91163793 -1.83017241 0 0 Z " fill="#1A202B" transform="translate(287.1875,232.375)"/>
<path d="M0 0 C0.91845703 -0.00386719 1.83691406 -0.00773438 2.78320312 -0.01171875 C3.65525391 -0.01042969 4.52730469 -0.00914062 5.42578125 -0.0078125 C6.22024658 -0.00668457 7.01471191 -0.00555664 7.83325195 -0.00439453 C9.6875 0.125 9.6875 0.125 10.6875 1.125 C10.6875 3.435 10.6875 5.745 10.6875 8.125 C2.7675 8.455 -5.1525 8.785 -13.3125 9.125 C-13.3125 14.735 -13.3125 20.345 -13.3125 26.125 C-10.48987357 27.06587548 -8.84586005 27.23151872 -5.93359375 27.1875 C-5.09505859 27.17976563 -4.25652344 27.17203125 -3.39257812 27.1640625 C-2.08450195 27.14472656 -2.08450195 27.14472656 -0.75 27.125 C0.98040678 27.09953412 2.71088594 27.07848633 4.44140625 27.0625 C5.20783447 27.05089844 5.9742627 27.03929687 6.76391602 27.02734375 C8.6875 27.125 8.6875 27.125 10.6875 28.125 C10.6875 30.435 10.6875 32.745 10.6875 35.125 C6.41668086 35.15397435 2.14588691 35.17178996 -2.125 35.1875 C-3.94741211 35.20006836 -3.94741211 35.20006836 -5.80664062 35.21289062 C-7.55170898 35.21772461 -7.55170898 35.21772461 -9.33203125 35.22265625 C-10.40557861 35.22789307 -11.47912598 35.23312988 -12.58520508 35.23852539 C-15.55216141 35.11502394 -17.54762414 34.71393589 -19.92578125 32.8828125 C-23.74316373 28.04387697 -23.7772216 19.27482401 -23.63671875 13.265625 C-23.06674817 9.50244577 -21.52335505 6.20836641 -19.3125 3.125 C-13.51551449 -0.73965701 -6.74018635 -0.02899005 0 0 Z " fill="#141B26" transform="translate(222.3125,230.875)"/>
<path d="M0 0 C-0.66 1.65 -1.32 3.3 -2 5 C0.64 5.33 3.28 5.66 6 6 C6 6.33 6 6.66 6 7 C2.37 7.33 -1.26 7.66 -5 8 C-5.66 9.65 -6.32 11.3 -7 13 C-7.598125 12.34 -8.19625 11.68 -8.8125 11 C-10.87501834 8.6626154 -10.87501834 8.6626154 -14 9 C-13.67 11.97 -13.34 14.94 -13 18 C-10.09123087 19.390117 -10.09123087 19.390117 -7 20 C-6.87625 20.804375 -6.7525 21.60875 -6.625 22.4375 C-6.41875 23.283125 -6.2125 24.12875 -6 25 C-3.48322887 26.25838557 -1.58706712 26.20818973 1.2265625 26.31640625 C2.2578125 26.35830078 3.2890625 26.40019531 4.3515625 26.44335938 C5.43179687 26.48267578 6.51203125 26.52199219 7.625 26.5625 C9.25695312 26.62727539 9.25695312 26.62727539 10.921875 26.69335938 C13.6144517 26.7996453 16.30712253 26.90168057 19 27 C19 29.31 19 31.62 19 34 C14.60422239 34.05815112 10.20854402 34.09364767 5.8125 34.125 C4.56662109 34.14175781 3.32074219 34.15851563 2.03710938 34.17578125 C0.83505859 34.18222656 -0.36699219 34.18867188 -1.60546875 34.1953125 C-3.26292114 34.21102295 -3.26292114 34.21102295 -4.95385742 34.22705078 C-8.03654165 33.99727629 -10.21840962 33.3081849 -13 32 C-13 31.34 -13 30.68 -13 30 C-13.66 30 -14.32 30 -15 30 C-16.73135236 20.91040009 -18.00215416 10.15165863 -13 2 C-8.7920942 -0.80527053 -4.85771358 -1.68151624 0 0 Z " fill="#202631" transform="translate(341,232)"/>
<path d="M0 0 C0 2.64 0 5.28 0 8 C-8.415 8.495 -8.415 8.495 -17 9 C-18.92870117 12.85740233 -19.24283376 14.11629643 -19.1953125 18.203125 C-19.18886719 19.1828125 -19.18242187 20.1625 -19.17578125 21.171875 C-19.15902344 22.18765625 -19.14226562 23.2034375 -19.125 24.25 C-19.11146484 25.796875 -19.11146484 25.796875 -19.09765625 27.375 C-19.07412011 29.91690287 -19.04124023 32.4583328 -19 35 C-21.97 35 -24.94 35 -28 35 C-28.05802751 30.41671978 -28.09360593 25.83353396 -28.125 21.25 C-28.14175781 19.94804687 -28.15851563 18.64609375 -28.17578125 17.3046875 C-28.18222656 16.05429688 -28.18867188 14.80390625 -28.1953125 13.515625 C-28.20578613 12.36352539 -28.21625977 11.21142578 -28.22705078 10.02441406 C-28.00312594 7.0416388 -27.7216043 5.42094094 -26 3 C-17.71601373 -1.06932659 -9.00581238 -0.27916984 0 0 Z " fill="#1D232B" transform="translate(393,231)"/>
<path d="M0 0 C0.99 0.33 1.98 0.66 3 1 C0.96100894 4.31415377 -1.08169107 7.62600694 -3.125 10.9375 C-3.69476563 11.86369141 -4.26453125 12.78988281 -4.8515625 13.74414062 C-6.55574942 16.50376149 -8.27480217 19.25347316 -10 22 C-10.5372168 22.8677002 -11.07443359 23.73540039 -11.62792969 24.62939453 C-12.14000977 25.4336084 -12.65208984 26.23782227 -13.1796875 27.06640625 C-13.62812012 27.77869385 -14.07655273 28.49098145 -14.53857422 29.22485352 C-16.66758486 31.81089367 -18.81836846 32.86790493 -22.15142822 33.24050903 C-22.92420105 33.23606781 -23.69697388 33.23162659 -24.49316406 33.22705078 C-25.37377502 33.22689972 -26.25438599 33.22674866 -27.16168213 33.22659302 C-28.57438385 33.21110916 -28.57438385 33.21110916 -30.015625 33.1953125 C-30.98659119 33.1924826 -31.95755737 33.18965271 -32.95794678 33.18673706 C-36.05542385 33.17555292 -39.1526105 33.15045142 -42.25 33.125 C-44.35155832 33.11496792 -46.45312118 33.10584247 -48.5546875 33.09765625 C-53.70323669 33.07561934 -58.85156913 33.04110145 -64 33 C-64 32.67 -64 32.34 -64 32 C-53.11 31.67 -42.22 31.34 -31 31 C-30.67 30.34 -30.34 29.68 -30 29 C-43.50455118 28.14194666 -43.50455118 28.14194666 -57.03125 28.0625 C-59 28 -59 28 -61 27 C-61 26.34 -61 25.68 -61 25 C-59.90534424 25.02618408 -58.81068848 25.05236816 -57.68286133 25.0793457 C-53.61096742 25.17003219 -49.53916224 25.22731549 -45.46655273 25.2746582 C-43.70598324 25.29976061 -41.94551753 25.33385028 -40.18530273 25.37719727 C-37.65061821 25.43804115 -35.11731425 25.46625113 -32.58203125 25.48828125 C-31.79850784 25.51408768 -31.01498444 25.5398941 -30.2077179 25.56648254 C-26.06149575 25.56859743 -24.48696054 25.3871817 -21.13085938 22.71875 C-19.4070146 20.51930736 -17.77720609 18.39461799 -16.32421875 16.01171875 C-15.88916016 15.30595703 -15.45410156 14.60019531 -15.00585938 13.87304688 C-14.57080078 13.15181641 -14.13574219 12.43058594 -13.6875 11.6875 C-13.23310547 10.94693359 -12.77871094 10.20636719 -12.31054688 9.44335938 C-11.20079596 7.63271314 -10.09952019 5.81687705 -9 4 C-7.0625 4.375 -7.0625 4.375 -5 5 C-4.505 5.99 -4.505 5.99 -4 7 C-2.10786631 4.61426621 -0.97608217 2.92824652 0 0 Z " fill="#6F8AEC" transform="translate(131,221)"/>
<path d="M0 0 C1 1 1 1 1 8 C-7.91 8 -16.82 8 -26 8 C-25.67 10.97 -25.34 13.94 -25 17 C-25.66 17 -26.32 17 -27 17 C-27.33 14.69 -27.66 12.38 -28 10 C-29.65 9.67 -31.3 9.34 -33 9 C-33.33 19.23 -33.66 29.46 -34 40 C-34.33 40 -34.66 40 -35 40 C-35 27.13 -35 14.26 -35 1 C-8.59598854 -0.38968481 -8.59598854 -0.38968481 0 0 Z " fill="#4A4F58" transform="translate(194,224)"/>
<path d="M0 0 C1 3 1 3 0 6 C1.32 6.66 2.64 7.32 4 8 C-1.94 8.495 -1.94 8.495 -8 9 C-9.19287411 12.87684087 -10 15.91621923 -10 20 C-10.66 20 -11.32 20 -12 20 C-12.33 21.98 -12.66 23.96 -13 26 C-13.66 26 -14.32 26 -15 26 C-15 26.66 -15 27.32 -15 28 C-15.66 28 -16.32 28 -17 28 C-17.33 28.99 -17.66 29.98 -18 31 C-19.42727587 26.71817238 -19.22447769 22.61054564 -19.25 18.125 C-19.270625 17.22652344 -19.29125 16.32804687 -19.3125 15.40234375 C-19.34169602 10.46091774 -19.29627837 6.9696274 -16 3 C-10.89001936 -0.61437655 -6.00218284 -0.32027458 0 0 Z " fill="#1D242E" transform="translate(258,231)"/>
<path d="M0 0 C1.32 0 2.64 0 4 0 C4.16281338 1.5798928 4.27877979 3.16465741 4.375 4.75 C4.44460938 5.63171875 4.51421875 6.5134375 4.5859375 7.421875 C4 10 4 10 1.57421875 12.296875 C-2.9921797 14.47277634 -6.57454855 14.59258379 -11.5625 14.5 C-12.39974609 14.51546875 -13.23699219 14.5309375 -14.09960938 14.546875 C-18.17079529 14.5210876 -20.47368094 14.31119122 -24.0390625 12.203125 C-26.65834207 9.26034875 -26.7771953 6.86194812 -27 3 C-24.03 3 -21.06 3 -18 3 C-17.67 3.99 -17.34 4.98 -17 6 C-10.43315331 7.16581481 -10.43315331 7.16581481 -4 6 C-2.75825204 4.0998823 -2.75825204 4.0998823 -2 2 C-1.34 1.34 -0.68 0.68 0 0 Z " fill="#0F1723" transform="translate(423,252)"/>
<path d="M0 0 C0.90943359 0.00064453 1.81886719 0.00128906 2.75585938 0.00195312 C9.42175752 0.04675752 9.42175752 0.04675752 10.5625 1.1875 C10.5625 3.4975 10.5625 5.8075 10.5625 8.1875 C2.6425 8.5175 -5.2775 8.8475 -13.4375 9.1875 C-13.7675 10.5075 -14.0975 11.8275 -14.4375 13.1875 C-14.7675 10.8775 -15.0975 8.5675 -15.4375 6.1875 C-19.21784623 9.66486026 -19.21784623 9.66486026 -21.4375 14.1875 C-22.0975 14.1875 -22.7575 14.1875 -23.4375 14.1875 C-22.96141771 9.18863592 -21.79065301 5.97054442 -18.4375 2.1875 C-12.23925612 0.13294818 -6.48959718 -0.09006746 0 0 Z " fill="#272D36" transform="translate(222.4375,230.8125)"/>
<path d="M0 0 C14.19 0 28.38 0 43 0 C43 0.66 43 1.32 43 2 C42.34 2 41.68 2 41 2 C40.9175 2.7425 40.835 3.485 40.75 4.25 C39.8603054 7.51221354 38.51496251 8.80954878 36 11 C35.505 9.02 35.505 9.02 35 7 C26.97726939 4.93391777 19.34049232 4.61039807 11.08789062 4.43359375 C10.10369141 4.40394531 9.11949219 4.37429687 8.10546875 4.34375 C6.77745239 4.31571289 6.77745239 4.31571289 5.42260742 4.28710938 C2.87208724 3.98484073 1.20544006 3.28386402 -1 2 C-0.67 1.34 -0.34 0.68 0 0 Z " fill="#6484F9" transform="translate(90,219)"/>
<path d="M0 0 C1.09658936 3.28976808 0.79953138 4.71303767 0 8 C0.99 8.33 1.98 8.66 3 9 C3 9.66 3 10.32 3 11 C0.03045709 12.70279307 -2.08084807 13.24666179 -5.49316406 13.22705078 C-6.37377502 13.22689972 -7.25438599 13.22674866 -8.16168213 13.22659302 C-9.57438385 13.21110916 -9.57438385 13.21110916 -11.015625 13.1953125 C-11.98659119 13.1924826 -12.95755737 13.18965271 -13.95794678 13.18673706 C-17.05542385 13.17555292 -20.1526105 13.15045142 -23.25 13.125 C-25.35155832 13.11496792 -27.45312118 13.10584247 -29.5546875 13.09765625 C-34.70323669 13.07561934 -39.85156913 13.04110145 -45 13 C-45 12.67 -45 12.34 -45 12 C-34.11 11.67 -23.22 11.34 -12 11 C-11.67 10.34 -11.34 9.68 -11 9 C-24.50455118 8.14194666 -24.50455118 8.14194666 -38.03125 8.0625 C-40 8 -40 8 -42 7 C-42 6.34 -42 5.68 -42 5 C-40.90534424 5.02618408 -39.81068848 5.05236816 -38.68286133 5.0793457 C-34.61096742 5.17003219 -30.53916224 5.22731549 -26.46655273 5.2746582 C-24.70598324 5.29976061 -22.94551753 5.33385028 -21.18530273 5.37719727 C-18.65061821 5.43804115 -16.11731425 5.46625113 -13.58203125 5.48828125 C-12.79850784 5.51408768 -12.01498444 5.5398941 -11.2077179 5.56648254 C-6.85070407 5.56870495 -5.45859528 5.38219346 -1.96362305 2.46948242 C-1.31562744 1.65455322 -0.66763184 0.83962402 0 0 Z " fill="#7F97EE" transform="translate(112,241)"/>
<path d="M0 0 C8.25 0 16.5 0 25 0 C25 2.31 25 4.62 25 7 C16.75 7 8.5 7 0 7 C-0.33 6.34 -0.66 5.68 -1 5 C-0.34 5 0.32 5 1 5 C1.33 4.01 1.66 3.02 2 2 C1.34 1.34 0.68 0.68 0 0 Z " fill="#111824" transform="translate(441,259)"/>
<path d="M0 0 C3.15319119 0.70744674 4.68377426 1.55036666 6.765625 4.03515625 C7.87117528 6.83154814 8.08317981 8.74701685 7.828125 11.72265625 C4.858125 11.72265625 1.888125 11.72265625 -1.171875 11.72265625 C-1.501875 10.73265625 -1.831875 9.74265625 -2.171875 8.72265625 C-6.461875 8.06265625 -10.751875 7.40265625 -15.171875 6.72265625 C-15.171875 6.39265625 -15.171875 6.06265625 -15.171875 5.72265625 C-13.521875 5.39265625 -11.871875 5.06265625 -10.171875 4.72265625 C-9.841875 3.73265625 -9.511875 2.74265625 -9.171875 1.72265625 C-11.481875 1.72265625 -13.791875 1.72265625 -16.171875 1.72265625 C-11.29123546 -1.53110344 -5.68829134 -0.72638253 0 0 Z " fill="#161C25" transform="translate(420.171875,231.27734375)"/>
<path d="M0 0 C0.66902344 -0.03738281 1.33804688 -0.07476562 2.02734375 -0.11328125 C5.92962704 -0.18228037 7.57107089 0.23219386 10.65234375 2.69140625 C12.87538221 5.53540518 13.8601744 7.89659084 14.75 11.375 C13.76 11.045 12.77 10.715 11.75 10.375 C11.75 9.385 11.75 8.395 11.75 7.375 C10.1 7.375 8.45 7.375 6.75 7.375 C7.08 8.035 7.41 8.695 7.75 9.375 C7.88415472 12.0473621 7.79318541 14.69750488 7.75 17.375 C7.42 17.375 7.09 17.375 6.75 17.375 C6.62882812 16.80910156 6.50765625 16.24320313 6.3828125 15.66015625 C6.21523438 14.92667969 6.04765625 14.19320312 5.875 13.4375 C5.71257813 12.70660156 5.55015625 11.97570312 5.3828125 11.22265625 C4.92038477 9.16799706 4.92038477 9.16799706 2.75 8.375 C0.15856095 8.06454474 -2.43371732 7.86526088 -5.03515625 7.65625 C-7.25 7.375 -7.25 7.375 -8.25 6.375 C-8.375 3.875 -8.375 3.875 -8.25 1.375 C-6.27373264 -0.60126736 -2.6865574 0.05565373 0 0 Z " fill="#7A93EC" transform="translate(50.25,207.625)"/>
<path d="M0 0 C0.33 1.32 0.66 2.64 1 4 C6.94 4 12.88 4 19 4 C19.33 2.68 19.66 1.36 20 0 C22.09749995 2.35968744 22.96905704 3.54616994 23.1875 6.75 C23.0946875 7.86375 23.0946875 7.86375 23 9 C19.45545326 11.20336689 16.55995103 11.23908926 12.4375 11.1875 C10.73400391 11.17783203 10.73400391 11.17783203 8.99609375 11.16796875 C6 11 6 11 3 10 C2.67 9.34 2.34 8.68 2 8 C1.34 7.34 0.68 6.68 0 6 C-0.125 2.875 -0.125 2.875 0 0 Z " fill="#111721" transform="translate(439,241)"/>
<path d="M0 0 C14.17567321 0.60993253 14.17567321 0.60993253 19 4 C21.13586678 7.20380017 21.23132175 8.01939967 21.125 11.6875 C21.10695313 12.49574219 21.08890625 13.30398438 21.0703125 14.13671875 C21.04710937 14.75160156 21.02390625 15.36648438 21 16 C20.67 16 20.34 16 20 16 C20 13.36 20 10.72 20 8 C17.13275314 8.57344937 16.1385485 8.8614515 14 11 C13.30251417 12.31747324 12.63040043 13.64914193 12 15 C11.67 13.35 11.34 11.7 11 10 C7.37 9.34 3.74 8.68 0 8 C0.33 6.35 0.66 4.7 1 3 C0.67 2.01 0.34 1.02 0 0 Z " fill="#333A43" transform="translate(407,244)"/>
<path d="M0 0 C1.09731445 0.01353516 1.09731445 0.01353516 2.21679688 0.02734375 C3.99884298 0.05063847 5.78071759 0.0864981 7.5625 0.125 C7.5625 0.785 7.5625 1.445 7.5625 2.125 C5.9125 2.125 4.2625 2.125 2.5625 2.125 C2.5625 2.785 2.5625 3.445 2.5625 4.125 C3.2225 4.455 3.8825 4.785 4.5625 5.125 C4.2325 5.785 3.9025 6.445 3.5625 7.125 C2.51449219 7.09019531 1.46648437 7.05539063 0.38671875 7.01953125 C-0.99217147 6.99139063 -2.37107902 6.96409076 -3.75 6.9375 C-4.44029297 6.91236328 -5.13058594 6.88722656 -5.84179688 6.86132812 C-9.87892301 6.73802112 -9.87892301 6.73802112 -13.29296875 8.63671875 C-13.67066406 9.12785156 -14.04835938 9.61898437 -14.4375 10.125 C-15.0975 10.125 -15.7575 10.125 -16.4375 10.125 C-16.7675 10.785 -17.0975 11.445 -17.4375 12.125 C-18.4375 11.125 -18.4375 11.125 -18.6875 8.25 C-18.4375 5.125 -18.4375 5.125 -17.375 3.375 C-12.02954648 -0.07367969 -6.14231044 -0.14611168 0 0 Z " fill="#181E28" transform="translate(384.4375,230.875)"/>
<path d="M0 0 C-0.66 1.65 -1.32 3.3 -2 5 C0.64 5.33 3.28 5.66 6 6 C6 6.33 6 6.66 6 7 C2.37 7.33 -1.26 7.66 -5 8 C-5.66 9.65 -6.32 11.3 -7 13 C-7.598125 12.34 -8.19625 11.68 -8.8125 11 C-10.87501834 8.6626154 -10.87501834 8.6626154 -14 9 C-14 13.95 -14 18.9 -14 24 C-14.66 23.67 -15.32 23.34 -16 23 C-16.56862745 7.81554103 -16.56862745 7.81554103 -13 2 C-8.7920942 -0.80527053 -4.85771358 -1.68151624 0 0 Z " fill="#343840" transform="translate(341,232)"/>
<path d="M0 0 C0.33 0 0.66 0 1 0 C1 2.31 1 4.62 1 7 C2.65 7.33 4.3 7.66 6 8 C6.33 7.34 6.66 6.68 7 6 C7 8.97 7 11.94 7 15 C11.62 15 16.24 15 21 15 C21 15.33 21 15.66 21 16 C20.14535156 16.04898438 19.29070312 16.09796875 18.41015625 16.1484375 C17.30542969 16.22320312 16.20070312 16.29796875 15.0625 16.375 C13.40927734 16.47941406 13.40927734 16.47941406 11.72265625 16.5859375 C10.82417969 16.72257812 9.92570313 16.85921875 9 17 C8.67 17.66 8.34 18.32 8 19 C6.34178227 19.37309899 4.67422986 19.70700977 3 20 C0.88074396 22.11925604 1.58168983 26.6196093 1.4375 29.5625 C1.39431641 30.36880859 1.35113281 31.17511719 1.30664062 32.00585938 C1.20024738 34.00368805 1.09959112 36.0018207 1 38 C1.99 38.33 2.98 38.66 4 39 C1.525 39.495 1.525 39.495 -1 40 C-0.67 26.8 -0.34 13.6 0 0 Z " fill="#0D131E" transform="translate(160,226)"/>
<path d="M0 0 C0 1.65 0 3.3 0 5 C-8.25 5 -16.5 5 -25 5 C-23.0634043 1.1268086 -22.32332236 0.00186229 -18.41015625 -1.53515625 C-12.88981644 -2.59985712 -5.09301198 -2.54650599 0 0 Z " fill="#161E2A" transform="translate(194,226)"/>
<path d="M0 0 C0.90105469 0.00902344 1.80210937 0.01804688 2.73046875 0.02734375 C3.41753906 0.03894531 4.10460937 0.05054688 4.8125 0.0625 C5.8125 3.0625 5.8125 3.0625 4.8125 6.0625 C6.1325 6.7225 7.4525 7.3825 8.8125 8.0625 C7.98105469 8.12308594 7.14960938 8.18367187 6.29296875 8.24609375 C5.20628906 8.32988281 4.11960937 8.41367188 3 8.5 C1.92105469 8.58121094 0.84210938 8.66242188 -0.26953125 8.74609375 C-3.24739905 8.96462461 -3.24739905 8.96462461 -6.1875 10.0625 C-6.5175 9.4025 -6.8475 8.7425 -7.1875 8.0625 C-8.8375 8.3925 -10.4875 8.7225 -12.1875 9.0625 C-12.1875 10.0525 -12.1875 11.0425 -12.1875 12.0625 C-12.8475 12.0625 -13.5075 12.0625 -14.1875 12.0625 C-13.91051826 8.09242844 -13.42065777 6.33860788 -10.8125 3.25 C-7.15274942 0.20020785 -4.60958276 -0.05986471 0 0 Z " fill="#242B35" transform="translate(253.1875,230.9375)"/>
<path d="M0 0 C0.66 1.65 1.32 3.3 2 5 C3.0725 5.0825 4.145 5.165 5.25 5.25 C9.33500175 6.06700035 10.34891677 6.9561637 13 10 C13.66 10 14.32 10 15 10 C15 10.66 15 11.32 15 12 C12.41718164 12.22224251 9.83477813 12.42823488 7.25 12.625 C6.52039063 12.68945312 5.79078125 12.75390625 5.0390625 12.8203125 C0.75157014 13.13213013 -1.03858853 12.98070573 -5 11 C-5 7.7 -5 4.4 -5 1 C-3 0 -3 0 0 0 Z " fill="#0D1622" transform="translate(332,240)"/>
<path d="M0 0 C3.06573761 0.91143551 4.6837838 1.58832231 6.65625 4.15625 C8.28505317 7.60325205 8.30244064 10.01945877 8.1875 13.8125 C8.16042969 14.97394531 8.13335937 16.13539063 8.10546875 17.33203125 C8.07066406 18.21246094 8.03585937 19.09289062 8 20 C5.36 20 2.72 20 0 20 C0.515625 19.62875 1.03125 19.2575 1.5625 18.875 C3.36319983 16.96826848 3.36319983 16.96826848 2.6875 13.8125 C2.3471875 12.4203125 2.3471875 12.4203125 2 11 C1.01 10.67 0.02 10.34 -1 10 C-1 9.34 -1 8.68 -1 8 C-1.66 7.67 -2.32 7.34 -3 7 C-3 3 -3 3 -1.5 1.25 C-1.005 0.8375 -0.51 0.425 0 0 Z " fill="#202732" transform="translate(458,232)"/>
<path d="M0 0 C0.33 0 0.66 0 1 0 C1 2.64 1 5.28 1 8 C-0.78857422 8.03867188 -0.78857422 8.03867188 -2.61328125 8.078125 C-4.1797242 8.13440439 -5.74612903 8.19175177 -7.3125 8.25 C-8.09818359 8.26417969 -8.88386719 8.27835938 -9.69335938 8.29296875 C-14.36367369 8.36968719 -14.36367369 8.36968719 -17.98046875 11.046875 C-18.48513672 12.01367188 -18.48513672 12.01367188 -19 13 C-19.33 13 -19.66 13 -20 13 C-20.33 13.66 -20.66 14.32 -21 15 C-21.66 15 -22.32 15 -23 15 C-23.33 15.99 -23.66 16.98 -24 18 C-24.33 18 -24.66 18 -25 18 C-25.33 23.61 -25.66 29.22 -26 35 C-26.33 35 -26.66 35 -27 35 C-27 25.76 -27 16.52 -27 7 C-26.34 8.32 -25.68 9.64 -25 11 C-24.01 10.67 -23.02 10.34 -22 10 C-21.67 9.01 -21.34 8.02 -21 7 C-17.57767028 5.85922343 -14.91326783 5.90184883 -11.3125 5.9375 C-9.54326172 5.95103516 -9.54326172 5.95103516 -7.73828125 5.96484375 C-6.83464844 5.97644531 -5.93101562 5.98804688 -5 6 C-5 4.68 -5 3.36 -5 2 C-3.35 2 -1.7 2 0 2 C0 1.34 0 0.68 0 0 Z " fill="#1D242C" transform="translate(392,231)"/>
<path d="M0 0 C0.33 0.99 0.66 1.98 1 3 C1.66 3 2.32 3 3 3 C3.33 2.01 3.66 1.02 4 0 C4.99 0.33 5.98 0.66 7 1 C7.70776367 2.85766602 7.70776367 2.85766602 8.16796875 5.25390625 C8.42416992 6.53491211 8.42416992 6.53491211 8.68554688 7.84179688 C8.85119141 8.73962891 9.01683594 9.63746094 9.1875 10.5625 C9.36474609 11.46419922 9.54199219 12.36589844 9.72460938 13.29492188 C10.16175506 15.52790927 10.58627093 17.76257597 11 20 C8.5625 19.1875 8.5625 19.1875 6 18 C5.67 17.01 5.34 16.02 5 15 C4.34 15 3.68 15 3 15 C2.67 16.32 2.34 17.64 2 19 C1.47120316 16.20962572 0.95165912 13.41807402 0.4375 10.625 C0.28603516 9.8309375 0.13457031 9.036875 -0.02148438 8.21875 C-1.11328125 2.2265625 -1.11328125 2.2265625 0 0 Z " fill="#6C8AF2" transform="translate(59,226)"/>
<path d="M0 0 C1.32296047 6.37426409 1.32296047 6.37426409 0 8.9375 C-3.05773424 10.56192132 -5.60762725 10.30839752 -9 10 C-11 8 -11 8 -11.25 4.5 C-11 1 -11 1 -9 -1 C-5.44231117 -2.4721471 -3.39194088 -1.60174986 0 0 Z " fill="#7D93E9" transform="translate(106,273)"/>
<path d="M0 0 C2.3125 1.3125 2.3125 1.3125 4.3125 3.3125 C3.73557692 9.88942308 3.73557692 9.88942308 2.3125 11.3125 C-3.8955292 11.77235401 -3.8955292 11.77235401 -6.625 10.1875 C-8.22875059 7.35735189 -8.21833754 5.49752524 -7.6875 2.3125 C-4.91297066 -0.22421254 -3.69277311 -0.94466289 0 0 Z " fill="#6887F5" transform="translate(74.6875,271.6875)"/>
<path d="M0 0 C0.66 0 1.32 0 2 0 C2 3.3 2 6.6 2 10 C-2.29 10 -6.58 10 -11 10 C-11 9.34 -11 8.68 -11 8 C-11.99 8.33 -12.98 8.66 -14 9 C-14.350625 8.360625 -14.70125 7.72125 -15.0625 7.0625 C-17.77184206 4.17836168 -20.15858911 4.2899178 -24 4 C-24 3.67 -24 3.34 -24 3 C-18.39 3 -12.78 3 -7 3 C-7 3.66 -7 4.32 -7 5 C-7.66 5 -8.32 5 -9 5 C-9 5.99 -9 6.98 -9 8 C-4.52116304 7.55296014 -4.52116304 7.55296014 -1 5 C-0.35232207 2.42938689 -0.35232207 2.42938689 0 0 Z " fill="#2D323D" transform="translate(358,242)"/>
<path d="M0 0 C4.29165198 -0.02935775 8.58327764 -0.04691802 12.875 -0.0625 C14.07898438 -0.07087891 15.28296875 -0.07925781 16.5234375 -0.08789062 C23.41719146 -0.10662365 30.15920263 0.12391174 37 1 C36.4740625 1.928125 36.4740625 1.928125 35.9375 2.875 C35.628125 3.57625 35.31875 4.2775 35 5 C35.495 5.99 35.495 5.99 36 7 C34.68 7 33.36 7 32 7 C31.67 6.01 31.34 5.02 31 4 C17.49544882 3.14194666 17.49544882 3.14194666 3.96875 3.0625 C2 3 2 3 0 2 C0 1.34 0 0.68 0 0 Z " fill="#6B88E4" transform="translate(70,246)"/>
<path d="M0 0 C2.97 0 5.94 0 9 0 C9.33 0.99 9.66 1.98 10 3 C10.99 3.66 11.98 4.32 13 5 C12.01 5 11.02 5 10 5 C9.67 5.66 9.34 6.32 9 7 C8.01 6.67 7.02 6.34 6 6 C6 6.99 6 7.98 6 9 C7.65 9 9.3 9 11 9 C10.34 9.66 9.68 10.32 9 11 C5.48266672 10.9074386 4.22800632 10.22184399 1.6875 7.75 C-0.12328851 4.7990854 -0.38684492 3.38489309 0 0 Z " fill="#232831" transform="translate(396,255)"/>
<path d="M0 0 C2.89924116 1.44962058 3.31328874 3.45241526 4.625 6.375 C5.07101562 7.35210937 5.51703125 8.32921875 5.9765625 9.3359375 C7 12 7 12 7 15 C6.236875 14.773125 5.47375 14.54625 4.6875 14.3125 C3.3571875 14.1578125 3.3571875 14.1578125 2 14 C0.1645201 15.33378575 0.1645201 15.33378575 -1 17 C-1.99 14.69 -2.98 12.38 -4 10 C-3.01 9.34 -2.02 8.68 -1 8 C-1.33 7.34 -1.66 6.68 -2 6 C-1.01 6 -0.02 6 1 6 C0.67 4.02 0.34 2.04 0 0 Z " fill="#252B35" transform="translate(291,240)"/>
<path d="M0 0 C0.66 0.33 1.32 0.66 2 1 C2 4.96 2 8.92 2 13 C1.01 12.01 0.02 11.02 -1 10 C-3.02350324 13.03525486 -3.32124018 14.19426202 -3.625 17.6875 C-3.69976562 18.49574219 -3.77453125 19.30398437 -3.8515625 20.13671875 C-3.90054688 20.75160156 -3.94953125 21.36648438 -4 22 C-6.50329639 19.49670361 -6.70034576 18.52093729 -7 15 C-6.35597137 8.53586074 -4.51287449 4.63163435 0 0 Z " fill="#121924" transform="translate(206,236)"/>
<path d="M0 0 C1.07735006 3.23205018 0.92640423 4.33577435 0.1875 7.5625 C0.01605469 8.34753906 -0.15539062 9.13257813 -0.33203125 9.94140625 C-1 12 -1 12 -3 14 C-5.625 13.625 -5.625 13.625 -8 13 C-7.63033201 11.20275237 -7.2282752 9.41214422 -6.8125 7.625 C-6.59207031 6.62726563 -6.37164062 5.62953125 -6.14453125 4.6015625 C-5 2 -5 2 -2.38671875 0.6484375 C-1.59910156 0.43445313 -0.81148438 0.22046875 0 0 Z " fill="#6785F5" transform="translate(119,236)"/>
<path d="M0 0 C4.073417 0.23961276 6.5347378 0.68322574 9.9375 3 C12.73021149 7.06212581 12.46876528 10.21859411 12 15 C11.67 15 11.34 15 11 15 C11 12.36 11 9.72 11 7 C8.13275314 7.57344937 7.1385485 7.8614515 5 10 C4.30251417 11.31747324 3.63040043 12.64914193 3 14 C2.9175 13.21625 2.835 12.4325 2.75 11.625 C2.27193661 8.85250896 2.27193661 8.85250896 -0.0625 7.6875 C-0.701875 7.460625 -1.34125 7.23375 -2 7 C-2 6.67 -2 6.34 -2 6 C-0.35 5.67 1.3 5.34 3 5 C3 4.01 3 3.02 3 2 C2.01 1.34 1.02 0.68 0 0 Z " fill="#3A4149" transform="translate(416,245)"/>
<path d="M0 0 C0.33 0 0.66 0 1 0 C1 5.28 1 10.56 1 16 C0.67 16 0.34 16 0 16 C-0.33 14.35 -0.66 12.7 -1 11 C-1.33 12.65 -1.66 14.3 -2 16 C-2.66 16 -3.32 16 -4 16 C-4.66 16.99 -5.32 17.98 -6 19 C-6 14.05 -6 9.1 -6 4 C-5.34 4.66 -4.68 5.32 -4 6 C-3.34 5.01 -2.68 4.02 -2 3 C-1.67 2.67 -1.34 2.34 -1 2 C-0.67 1.34 -0.34 0.68 0 0 Z " fill="#0C131E" transform="translate(372,241)"/>
<path d="M0 0 C7.59 0 15.18 0 23 0 C23 0.33 23 0.66 23 1 C18.05 1.33 13.1 1.66 8 2 C8.33 2.66 8.66 3.32 9 4 C8.34 4 7.68 4 7 4 C7 4.66 7 5.32 7 6 C2.545 6.495 2.545 6.495 -2 7 C-1.125 2.25 -1.125 2.25 0 0 Z " fill="#191F29" transform="translate(335,259)"/>
<path d="M0 0 C1.65 0 3.3 0 5 0 C5.33 0.99 5.66 1.98 6 3 C6.99 3.66 7.98 4.32 9 5 C8.34 5 7.68 5 7 5 C7.04125 5.928125 7.0825 6.85625 7.125 7.8125 C7 11 7 11 5 14 C3.68 13.67 2.36 13.34 1 13 C0.67 8.71 0.34 4.42 0 0 Z " fill="#6684F8" transform="translate(57,215)"/>
<path d="M0 0 C1.423125 0.495 1.423125 0.495 2.875 1 C5.77062452 2.10159191 5.77062452 2.10159191 8 2 C8 2.66 8 3.32 8 4 C8.66 4.33 9.32 4.66 10 5 C9.01 6.485 9.01 6.485 8 8 C8.66 8.33 9.32 8.66 10 9 C4.70558305 9.50423019 2.18586481 8.18923033 -2 5 C-1.125 1.125 -1.125 1.125 0 0 Z " fill="#0F1621" transform="translate(399,242)"/>
<path d="M0 0 C7.59 0.33 15.18 0.66 23 1 C23 1.33 23 1.66 23 2 C14.585 2.495 14.585 2.495 6 3 C6 3.99 6 4.98 6 6 C11.28 6 16.56 6 22 6 C22 6.33 22 6.66 22 7 C14.74 7 7.48 7 0 7 C-0.33 6.34 -0.66 5.68 -1 5 C-0.34 5 0.32 5 1 5 C1.33 4.01 1.66 3.02 2 2 C1.34 1.34 0.68 0.68 0 0 Z " fill="#0A0F19" transform="translate(441,259)"/>
<path d="M0 0 C0.66 0.33 1.32 0.66 2 1 C2 2.65 2 4.3 2 6 C-2.62 6 -7.24 6 -12 6 C-11.34 5.67 -10.68 5.34 -10 5 C-9.67 4.34 -9.34 3.68 -9 3 C-6.43730059 -0.50685182 -4.16995248 -0.35488957 0 0 Z " fill="#0F1621" transform="translate(192,225)"/>
<path d="M0 0 C0.33 0 0.66 0 1 0 C2.32 6.27 3.64 12.54 5 19 C2.525 18.01 2.525 18.01 0 17 C-0.33 16.01 -0.66 15.02 -1 14 C-1.66 14 -2.32 14 -3 14 C-3.33 15.32 -3.66 16.64 -4 18 C-4.33 16.02 -4.66 14.04 -5 12 C-4.01 11.67 -3.02 11.34 -2 11 C-1.34 7.37 -0.68 3.74 0 0 Z " fill="#748EEB" transform="translate(65,227)"/>
<path d="M0 0 C1.74216797 0.15275391 1.74216797 0.15275391 3.51953125 0.30859375 C4.39996094 0.39238281 5.28039062 0.47617188 6.1875 0.5625 C5.1975 1.0575 5.1975 1.0575 4.1875 1.5625 C4.5175 3.5425 4.8475 5.5225 5.1875 7.5625 C2.8775 7.2325 0.5675 6.9025 -1.8125 6.5625 C-1.8125 5.9025 -1.8125 5.2425 -1.8125 4.5625 C-3.1325 4.2325 -4.4525 3.9025 -5.8125 3.5625 C-4.8225 3.2325 -3.8325 2.9025 -2.8125 2.5625 C-5.7825 2.2325 -8.7525 1.9025 -11.8125 1.5625 C-11.8125 1.2325 -11.8125 0.9025 -11.8125 0.5625 C-7.71524731 -0.47917441 -4.19754776 -0.38159525 0 0 Z " fill="#0A111C" transform="translate(451.8125,231.4375)"/>
<path d="M0 0 C3.63 0 7.26 0 11 0 C11.33 0.99 11.66 1.98 12 3 C11.34 3 10.68 3 10 3 C10 3.66 10 4.32 10 5 C6.7 5 3.4 5 0 5 C-0.33 4.01 -0.66 3.02 -1 2 C-0.67 1.34 -0.34 0.68 0 0 Z " fill="#6484F3" transform="translate(45,208)"/>
<path d="M0 0 C0.33 0 0.66 0 1 0 C1 1.98 1 3.96 1 6 C-2.96 6 -6.92 6 -11 6 C-10.67 4.68 -10.34 3.36 -10 2 C-7.06156148 0.53078074 -4.24602179 1 -1 1 C-0.67 0.67 -0.34 0.34 0 0 Z " fill="#252A34" transform="translate(232,260)"/>
<path d="M0 0 C2.31 0.33 4.62 0.66 7 1 C7.33 1.99 7.66 2.98 8 4 C8.99 4.33 9.98 4.66 11 5 C10.67 5.99 10.34 6.98 10 8 C7.69 8.33 5.38 8.66 3 9 C1.44402274 6.66603411 0.07918104 4.57343171 -1 2 C-0.67 1.34 -0.34 0.68 0 0 Z " fill="#101824" transform="translate(292,253)"/>
<path d="M0 0 C2.125 0.375 2.125 0.375 4 1 C4 2.32 4 3.64 4 5 C5.32 5.33 6.64 5.66 8 6 C1.565 6.495 1.565 6.495 -5 7 C-5 8.65 -5 10.3 -5 12 C-5.33 12 -5.66 12 -6 12 C-6.33 9.03 -6.66 6.06 -7 3 C-6.21625 2.87625 -5.4325 2.7525 -4.625 2.625 C-1.85942178 2.20882007 -1.85942178 2.20882007 0 0 Z " fill="#373F48" transform="translate(446,233)"/>
<path d="M0 0 C1.11375 1.175625 1.11375 1.175625 2.25 2.375 C4.59421977 4.61266433 6.14324985 5.69370826 9 7 C6.89611431 7.05402274 4.79183286 7.09280256 2.6875 7.125 C0.92986328 7.15980469 0.92986328 7.15980469 -0.86328125 7.1953125 C-4 7 -4 7 -7 5 C-7 4.01 -7 3.02 -7 2 C-6.401875 1.855625 -5.80375 1.71125 -5.1875 1.5625 C-3.43849596 1.1127561 -1.71322977 0.57107659 0 0 Z " fill="#0D141D" transform="translate(409,259)"/>
<path d="M0 0 C2.97 0 5.94 0 9 0 C8 3 8 3 6 5 C6.33 5.66 6.66 6.32 7 7 C2.71 6.67 -1.58 6.34 -6 6 C-6 5.67 -6 5.34 -6 5 C-4.02 5 -2.04 5 0 5 C0 3.35 0 1.7 0 0 Z " fill="#0D131D" transform="translate(258,232)"/>
<path d="M0 0 C0.66 0 1.32 0 2 0 C2 4.29 2 8.58 2 13 C-0.64 13 -3.28 13 -6 13 C-5.54625 12.649375 -5.0925 12.29875 -4.625 11.9375 C-2.34515037 9.21921775 -1.85222452 6.4088981 -1 3 C-0.67 2.01 -0.34 1.02 0 0 Z " fill="#2F333B" transform="translate(464,239)"/>
<path d="M0 0 C0.33 0.66 0.66 1.32 1 2 C0.01 2.33 -0.98 2.66 -2 3 C-2.33 4.98 -2.66 6.96 -3 9 C-0.36 9.33 2.28 9.66 5 10 C5 8.35 5 6.7 5 5 C5.66 4.67 6.32 4.34 7 4 C6.125 10.875 6.125 10.875 5 12 C-1.2080292 12.45985401 -1.2080292 12.45985401 -3.9375 10.875 C-5.54125059 8.04485189 -5.53083754 6.18502524 -5 3 C-2.5 1.125 -2.5 1.125 0 0 Z " fill="#8596E2" transform="translate(72,271)"/>
<path d="M0 0 C2.64 1.32 5.28 2.64 8 4 C8 4.66 8 5.32 8 6 C8.66 6.33 9.32 6.66 10 7 C10.33 5.68 10.66 4.36 11 3 C11 4.65 11 6.3 11 8 C8.03 8 5.06 8 2 8 C1.67 7.01 1.34 6.02 1 5 C-1.00016466 3.79117904 -1.00016466 3.79117904 -3 3 C-2.34 3 -1.68 3 -1 3 C-0.67 2.01 -0.34 1.02 0 0 Z " fill="#363D45" transform="translate(417,235)"/>
<path d="M0 0 C3.96 0 7.92 0 12 0 C12 0.33 12 0.66 12 1 C8.7 1 5.4 1 2 1 C2.33 1.99 2.66 2.98 3 4 C5.31 4 7.62 4 10 4 C10.33 4.99 10.66 5.98 11 7 C4.07 6.505 4.07 6.505 -3 6 C-2.67 5.01 -2.34 4.02 -2 3 C-1.34 3 -0.68 3 0 3 C0 2.01 0 1.02 0 0 Z " fill="#0A101A" transform="translate(340,232)"/>
<path d="M0 0 C6.55187638 -0.37086093 6.55187638 -0.37086093 8.8125 1.5 C9.204375 1.995 9.59625 2.49 10 3 C10.66 3 11.32 3 12 3 C12 3.66 12 4.32 12 5 C10.20906809 5.08086147 8.41710372 5.13912702 6.625 5.1875 C5.12839844 5.23970703 5.12839844 5.23970703 3.6015625 5.29296875 C2.74304688 5.19628906 1.88453125 5.09960938 1 5 C0.34 4.01 -0.32 3.02 -1 2 C-0.67 1.34 -0.34 0.68 0 0 Z " fill="#262B37" transform="translate(335,247)"/>
<path d="M0 0 C0.99 1.32 1.98 2.64 3 4 C3.66 4.66 4.32 5.32 5 6 C4.34 7.65 3.68 9.3 3 11 C2.67 11 2.34 11 2 11 C1.67 16.61 1.34 22.22 1 28 C0.67 28 0.34 28 0 28 C0 18.76 0 9.52 0 0 Z " fill="#60646C" transform="translate(365,238)"/>
<path d="M0 0 C0 3 0 3 -1 5 C-1.04022391 7.3329866 -1.04320247 9.66706666 -1 12 C-0.01 12 0.98 12 2 12 C2 12.66 2 13.32 2 14 C2.66 14.33 3.32 14.66 4 15 C3.01 15.66 2.02 16.32 1 17 C-2.33098122 14.25194049 -3.86534577 12.83784855 -4.5625 8.5 C-3.92501775 4.53344376 -2.76383547 2.85020533 0 0 Z " fill="#8495E1" transform="translate(61,249)"/>
<path d="M0 0 C0.66 0 1.32 0 2 0 C2 3.3 2 6.6 2 10 C-1.63 9.67 -5.26 9.34 -9 9 C-6.33333333 7.66666667 -3.66666667 6.33333333 -1 5 C-0.34444881 2.47266765 -0.34444881 2.47266765 0 0 Z " fill="#353943" transform="translate(358,242)"/>
<path d="M0 0 C3.875 1.75 3.875 1.75 5 4 C5.66 4 6.32 4 7 4 C7.33 4.66 7.66 5.32 8 6 C9.32 6 10.64 6 12 6 C12 6.99 12 7.98 12 9 C10.72125 9.061875 9.4425 9.12375 8.125 9.1875 C7.40570313 9.22230469 6.68640625 9.25710938 5.9453125 9.29296875 C5.30335938 9.19628906 4.66140625 9.09960938 4 9 C2 6 2 6 2 3 C1.34 3 0.68 3 0 3 C0 2.01 0 1.02 0 0 Z " fill="#3B4147" transform="translate(291,257)"/>
<path d="M0 0 C1.32 0.33 2.64 0.66 4 1 C4.33 2.65 4.66 4.3 5 6 C1.7 5.67 -1.6 5.34 -5 5 C-4.67 4.34 -4.34 3.68 -4 3 C-1.9375 2.375 -1.9375 2.375 0 2 C0 1.34 0 0.68 0 0 Z " fill="#0E131C" transform="translate(189,260)"/>
<path d="M0 0 C0 0.66 0 1.32 0 2 C-1.65 2 -3.3 2 -5 2 C-5 2.66 -5 3.32 -5 4 C-4.34 4.33 -3.68 4.66 -3 5 C-3.33 5.66 -3.66 6.32 -4 7 C-7.63 7 -11.26 7 -15 7 C-15 6.67 -15 6.34 -15 6 C-11.535 5.505 -11.535 5.505 -8 5 C-8 4.01 -8 3.02 -8 2 C-9.65 2 -11.3 2 -13 2 C-13 1.67 -13 1.34 -13 1 C-8.61414671 0.29826347 -4.44209357 -0.10834375 0 0 Z " fill="#0A0F19" transform="translate(392,231)"/>
<path d="M0 0 C0.66 0 1.32 0 2 0 C2 1.32 2 2.64 2 4 C5.3 4.33 8.6 4.66 12 5 C12 5.66 12 6.32 12 7 C10.02090602 7.02686553 8.04171029 7.04633375 6.0625 7.0625 C4.96035156 7.07410156 3.85820313 7.08570313 2.72265625 7.09765625 C0 7 0 7 -1 6 C-1.125 3.5 -1.125 3.5 -1 1 C-0.67 0.67 -0.34 0.34 0 0 Z " fill="#7088E3" transform="translate(43,208)"/>
<path d="M0 0 C0.66 0.33 1.32 0.66 2 1 C2 2.98 2 4.96 2 7 C1.4225 6.814375 0.845 6.62875 0.25 6.4375 C-2.20692525 5.95976454 -3.64397534 6.24270636 -6 7 C-6 5.35 -6 3.7 -6 2 C-4.68 2.33 -3.36 2.66 -2 3 C-1.34 2.01 -0.68 1.02 0 0 Z " fill="#6685F9" transform="translate(103,274)"/>
<path d="M0 0 C7.26 0 14.52 0 22 0 C22 2.31 22 4.62 22 7 C21.01 7 20.02 7 19 7 C19.33 5.02 19.66 3.04 20 1 C13.4 1 6.8 1 0 1 C0 0.67 0 0.34 0 0 Z " fill="#23262E" transform="translate(444,259)"/>
<path d="M0 0 C0.33 0 0.66 0 1 0 C1 2.64 1 5.28 1 8 C-1.64 8 -4.28 8 -7 8 C-6.67 7.38125 -6.34 6.7625 -6 6.125 C-4.85806765 4.08981656 -4.85806765 4.08981656 -5 2 C-3.35 2 -1.7 2 0 2 C0 1.34 0 0.68 0 0 Z " fill="#31353C" transform="translate(392,231)"/>
<path d="M0 0 C1.32 0.33 2.64 0.66 4 1 C3.34 2.65 2.68 4.3 2 6 C4.64 6.33 7.28 6.66 10 7 C10 7.33 10 7.66 10 8 C5.71 8 1.42 8 -3 8 C-1 3 -1 3 1 2 C0.67 1.34 0.34 0.68 0 0 Z " fill="#565C65" transform="translate(337,231)"/>
<path d="M0 0 C2.31 0.33 4.62 0.66 7 1 C7.33 2.65 7.66 4.3 8 6 C5.69 6.33 3.38 6.66 1 7 C0.67 6.01 0.34 5.02 0 4 C0.99 3.67 1.98 3.34 3 3 C3 2.34 3 1.68 3 1 C2.01 0.67 1.02 0.34 0 0 Z " fill="#0D1421" transform="translate(412,245)"/>
<path d="M0 0 C3.3 0 6.6 0 10 0 C9.67 0.99 9.34 1.98 9 3 C5.7 3.33 2.4 3.66 -1 4 C-0.67 2.68 -0.34 1.36 0 0 Z " fill="#121826" transform="translate(342,233)"/>
<path d="M0 0 C2.14965431 3.22448147 2.22152284 3.79930965 1.9765625 7.44921875 C1.925 8.29677734 1.8734375 9.14433594 1.8203125 10.01757812 C1.75585938 10.89865234 1.69140625 11.77972656 1.625 12.6875 C1.56828125 13.58017578 1.5115625 14.47285156 1.453125 15.39257812 C1.31173702 17.59587413 1.16034022 19.79801539 1 22 C1.99 22.33 2.98 22.66 4 23 C2.35 23.33 0.7 23.66 -1 24 C-0.67 16.08 -0.34 8.16 0 0 Z " fill="#060D15" transform="translate(160,242)"/>
<path d="M0 0 C6.93 0 13.86 0 21 0 C21.33 1.32 21.66 2.64 22 4 C21.14390137 3.51781006 21.14390137 3.51781006 20.27050781 3.02587891 C17.89443242 1.95230161 16.25885128 1.69680791 13.671875 1.5859375 C12.87265625 1.54726563 12.0734375 1.50859375 11.25 1.46875 C10.425 1.4378125 9.6 1.406875 8.75 1.375 C7.90953125 1.33632813 7.0690625 1.29765625 6.203125 1.2578125 C4.13576618 1.16384164 2.06791373 1.08084436 0 1 C0 0.67 0 0.34 0 0 Z " fill="#6981D6" transform="translate(90,260)"/>
<path d="M0 0 C2.9375 0.375 2.9375 0.375 6 1 C6.33 1.66 6.66 2.32 7 3 C6.01 4.485 6.01 4.485 5 6 C2.525 5.01 2.525 5.01 0 4 C0 2.68 0 1.36 0 0 Z " fill="#111A28" transform="translate(437,259)"/>
<path d="M0 0 C0.12375 0.78375 0.2475 1.5675 0.375 2.375 C0.79117993 5.14057822 0.79117993 5.14057822 3 7 C2.34 7 1.68 7 1 7 C0.34 8.32 -0.32 9.64 -1 11 C-3.09350689 7.5980513 -3.17942163 4.94727588 -3 1 C-1 0 -1 0 0 0 Z " fill="#2B303C" transform="translate(334,252)"/>
<path d="M0 0 C3.96 0 7.92 0 12 0 C12.33 0.99 12.66 1.98 13 3 C11.20841511 3.02696365 9.41671527 3.04637917 7.625 3.0625 C6.62726563 3.07410156 5.62953125 3.08570313 4.6015625 3.09765625 C2 3 2 3 0 2 C0 1.34 0 0.68 0 0 Z " fill="#8198E9" transform="translate(70,246)"/>
<path d="M0 0 C1.125 1.5625 1.125 1.5625 2 4 C1.125 7.75 1.125 7.75 0 11 C-0.99 10.67 -1.98 10.34 -3 10 C-2.25 3.375 -2.25 3.375 0 0 Z " fill="#0D1722" transform="translate(290,240)"/>
<path d="M0 0 C1.32 0.66 2.64 1.32 4 2 C4 2.99 4 3.98 4 5 C1.69 5.33 -0.62 5.66 -3 6 C-3.33 5.34 -3.66 4.68 -4 4 C-3.34 4 -2.68 4 -2 4 C-1.34 2.68 -0.68 1.36 0 0 Z " fill="#1E262D" transform="translate(267,232)"/>
<path d="M0 0 C0.66 0 1.32 0 2 0 C1.67 2.31 1.34 4.62 1 7 C-0.98 7.33 -2.96 7.66 -5 8 C-4.67 6.68 -4.34 5.36 -4 4 C-2.68 4.66 -1.36 5.32 0 6 C0 4.02 0 2.04 0 0 Z " fill="#758DE1" transform="translate(105,275)"/>
<path d="M0 0 C2.31 0 4.62 0 7 0 C5.70700306 2.88437779 4.34058637 4.87219421 2 7 C1.7834375 5.824375 1.7834375 5.824375 1.5625 4.625 C1.12201075 2.03578982 1.12201075 2.03578982 0 0 Z " fill="#1F242E" transform="translate(159,225)"/>
<path d="M0 0 C2.875 -0.125 2.875 -0.125 6 0 C6.66 0.66 7.32 1.32 8 2 C4.5647952 4.29013653 3.014669 4.17842973 -1 4 C-0.67 2.68 -0.34 1.36 0 0 Z " fill="#252D37" transform="translate(419,260)"/>
<path d="M0 0 C-0.99 1.485 -0.99 1.485 -2 3 C-2 2.34 -2 1.68 -2 1 C-4.97 1 -7.94 1 -11 1 C-10.67 0.34 -10.34 -0.32 -10 -1 C-3.625 -2.41666667 -3.625 -2.41666667 0 0 Z " fill="#080C16" transform="translate(233,260)"/>
<path d="M0 0 C0.33 0.66 0.66 1.32 1 2 C1.99 2 2.98 2 4 2 C4.66 3.98 5.32 5.96 6 8 C5.01 8.495 5.01 8.495 4 9 C1.47740939 7.02579865 1.0070192 6.03254358 0.3125 2.8125 C0.209375 1.884375 0.10625 0.95625 0 0 Z " fill="#42454B" transform="translate(200,256)"/>
<path d="M0 0 C0 1.32 0 2.64 0 4 C1.32 4.66 2.64 5.32 4 6 C3.01 6.495 3.01 6.495 2 7 C-0.5625 5.75 -0.5625 5.75 -3 4 C-3.33 3.01 -3.66 2.02 -4 1 C-2 0 -2 0 0 0 Z " fill="#282E37" transform="translate(437,259)"/>
<path d="M0 0 C2.97 0.495 2.97 0.495 6 1 C5.67 3.31 5.34 5.62 5 8 C2.98863724 5.44008376 1.37154504 2.95409701 0 0 Z " fill="#2B2D35" transform="translate(277,232)"/>
<path d="M0 0 C1 2 1 2 0.44140625 4.1640625 C0.15136719 4.97617188 -0.13867188 5.78828125 -0.4375 6.625 C-0.72496094 7.44226563 -1.01242188 8.25953125 -1.30859375 9.1015625 C-1.53675781 9.72804687 -1.76492187 10.35453125 -2 11 C-2.66 11 -3.32 11 -4 11 C-3.48964169 6.6109185 -2.47785723 3.66291938 0 0 Z " fill="#494C52" transform="translate(203,234)"/>
<path d="M0 0 C0.66 0.99 1.32 1.98 2 3 C1.67 3.99 1.34 4.98 1 6 C-0.98 6 -2.96 6 -5 6 C-4.34 4.68 -3.68 3.36 -3 2 C-2.01 2 -1.02 2 0 2 C0 1.34 0 0.68 0 0 Z " fill="#1D2230" transform="translate(257,231)"/>
<path d="M0 0 C2.31 0 4.62 0 7 0 C6.67 0.99 6.34 1.98 6 3 C3.69 3.33 1.38 3.66 -1 4 C-0.67 2.68 -0.34 1.36 0 0 Z " fill="#0F1825" transform="translate(439,233)"/>
<path d="M0 0 C0.556875 0.7734375 0.556875 0.7734375 1.125 1.5625 C0.465 2.2225 -0.195 2.8825 -0.875 3.5625 C-1.865 3.5625 -2.855 3.5625 -3.875 3.5625 C-3.875 2.5725 -3.875 1.5825 -3.875 0.5625 C-5.195 0.2325 -6.515 -0.0975 -7.875 -0.4375 C-2.33653846 -1.79134615 -2.33653846 -1.79134615 0 0 Z " fill="#0F131B" transform="translate(286.875,232.4375)"/>
<path d="M0 0 C0.66 0 1.32 0 2 0 C2 1.65 2 3.3 2 5 C0.35 5.33 -1.3 5.66 -3 6 C-3.33 5.01 -3.66 4.02 -4 3 C-3.01 2.67 -2.02 2.34 -1 2 C-0.67 1.34 -0.34 0.68 0 0 Z " fill="#252B36" transform="translate(209,257)"/>
<path d="M0 0 C0.99 0.33 1.98 0.66 3 1 C3 2.65 3 4.3 3 6 C2.01 6 1.02 6 0 6 C-0.38218767 4.34385343 -0.71395102 2.67542976 -1 1 C-0.67 0.67 -0.34 0.34 0 0 Z " fill="#2F363D" transform="translate(285,242)"/>
<path d="M0 0 C0.66 0.33 1.32 0.66 2 1 C1.34 2.32 0.68 3.64 0 5 C-0.66 5 -1.32 5 -2 5 C-2.33 6.32 -2.66 7.64 -3 9 C-3.66 9 -4.32 9 -5 9 C-3.7508258 5.54074837 -2.32472205 2.85306797 0 0 Z " fill="#7B93E9" transform="translate(120,229)"/>
<path d="M0 0 C1.32 0.33 2.64 0.66 4 1 C4 2.32 4 3.64 4 5 C1.03 4.505 1.03 4.505 -2 4 C-1.34 2.68 -0.68 1.36 0 0 Z " fill="#7289F5" transform="translate(122,225)"/>
<path d="M0 0 C0.99 0 1.98 0 3 0 C3 1.98 3 3.96 3 6 C3.66 6.33 4.32 6.66 5 7 C3.68 7 2.36 7 1 7 C0.67 4.69 0.34 2.38 0 0 Z " fill="#10141E" transform="translate(327,257)"/>
<path d="M0 0 C2.66666667 1.33333333 5.33333333 2.66666667 8 4 C8 4.66 8 5.32 8 6 C2.33846154 4.52307692 2.33846154 4.52307692 0.625 1.875 C0.41875 1.25625 0.2125 0.6375 0 0 Z " fill="#20252C" transform="translate(397,245)"/>
<path d="M0 0 C0.66 0.66 1.32 1.32 2 2 C0.68 3.65 -0.64 5.3 -2 7 C-2 5.68 -2 4.36 -2 3 C-3.65 2.67 -5.3 2.34 -7 2 C-7 1.67 -7 1.34 -7 1 C-3.625 0.375 -3.625 0.375 0 0 Z " fill="#383A3E" transform="translate(321,231)"/>
<path d="M0 0 C1.65 0 3.3 0 5 0 C5 0.66 5 1.32 5 2 C5.66 2.33 6.32 2.66 7 3 C6.01 3.66 5.02 4.32 4 5 C2.64567325 3.68799596 1.31266518 2.35368596 0 1 C0 0.67 0 0.34 0 0 Z " fill="#788FE6" transform="translate(58,261)"/>
<path d="M0 0 C1 2 1 2 1 6 C0.34 6 -0.32 6 -1 6 C-1 6.99 -1 7.98 -1 9 C-1.66 9 -2.32 9 -3 9 C-2.5020163 5.26512223 -2.12508244 3.18762365 0 0 Z " fill="#40434B" transform="translate(242,234)"/>
<path d="M0 0 C1.98 0 3.96 0 6 0 C4.1875 2 4.1875 2 2 4 C1.01 4 0.02 4 -1 4 C-0.67 2.68 -0.34 1.36 0 0 Z " fill="#0E131B" transform="translate(333,232)"/>
<path d="M0 0 C0.66 0 1.32 0 2 0 C2 2.31 2 4.62 2 7 C1.01 7 0.02 7 -1 7 C-0.67 4.69 -0.34 2.38 0 0 Z " fill="#393A3D" transform="translate(464,259)"/>
<path d="M0 0 C0.598125 0.20625 1.19625 0.4125 1.8125 0.625 C1.8125 2.935 1.8125 5.245 1.8125 7.625 C1.4721875 6.696875 1.4721875 6.696875 1.125 5.75 C-0.56679835 3.01089791 -2.17994161 2.57475528 -5.1875 1.625 C-2.1875 -0.375 -2.1875 -0.375 0 0 Z " fill="#2B2C30" transform="translate(193.1875,258.375)"/>
<path d="M0 0 C0.928125 0.7425 0.928125 0.7425 1.875 1.5 C3.83880904 3.19222773 3.83880904 3.19222773 6 3 C6 3.66 6 4.32 6 5 C4.02 5 2.04 5 0 5 C-0.33 4.01 -0.66 3.02 -1 2 C-0.67 1.34 -0.34 0.68 0 0 Z " fill="#0E131C" transform="translate(341,247)"/>
</svg>
